<svg width="48" height="48" viewBox="0 0 48 48" fill="none" xmlns="http://www.w3.org/2000/svg">
<g clip-path="url(#clip0_205_88)">
<rect width="48" height="48" fill="#001E36"/>
<path d="M48 0H0V48H48V0Z" fill="#001E36"/>
<path fill-rule="evenodd" clip-rule="evenodd" d="M10.5 13.3463V34.3073C10.5 34.4907 10.5792 34.5721 10.7377 34.5721H14.5798C14.7184 34.5518 14.8175 34.4296 14.7977 34.287V27.7481C15.1739 27.7481 15.4512 27.7481 15.6493 27.7685C15.8473 27.7888 16.1642 27.7888 16.6395 27.7888C18.2635 27.7888 19.7489 27.6055 21.0956 27.0962C22.3829 26.6074 23.492 25.7518 24.2842 24.6111C25.0764 23.4703 25.4725 22.024 25.4725 20.2722C25.4725 19.3555 25.314 18.4796 25.017 17.6241C24.7001 16.7481 24.205 15.9537 23.5712 15.3018C22.8186 14.5481 21.9076 13.9778 20.9174 13.6315C19.8083 13.2037 18.4616 13 16.8376 13C16.2434 13 15.6493 13 15.0353 13.0204C14.7389 13.0302 14.4517 13.0353 14.1738 13.0402C13.876 13.0455 13.5889 13.0506 13.3123 13.0611C13.0529 13.071 12.8029 13.0761 12.5599 13.081C12.3019 13.0863 12.0519 13.0914 11.8071 13.1019C11.3516 13.1222 11.0347 13.1222 10.6981 13.1222C10.5594 13.1222 10.5 13.2037 10.5 13.3463ZM14.8175 23.8981V17.0537C14.9561 17.0333 15.2334 17.0129 15.6295 17.0333C16.0058 17.0129 16.4613 17.0129 16.9762 17.0129C17.7882 16.9926 18.5804 17.1148 19.3132 17.4204C19.8875 17.6444 20.3628 18.0518 20.6995 18.5815C21.0164 19.1315 21.1748 19.7629 21.155 20.3944C21.155 21.2907 20.957 21.9833 20.5411 22.4926C20.1054 23.0018 19.5508 23.3889 18.9171 23.5722C18.1843 23.8166 17.4119 23.9388 16.6395 23.9388H15.5898C15.3692 23.9388 15.1316 23.9213 14.8768 23.9025C14.8572 23.901 14.8374 23.8996 14.8175 23.8981Z" fill="#31A8FF"/>
<path d="M35.9294 21.963C36.6028 22.1056 37.2365 22.3297 37.8307 22.6556C37.9099 22.6963 38.0089 22.6963 38.1872 22.6556C38.2466 22.6148 38.2862 22.5334 38.2862 22.4519V19.1315C38.2862 19.05 38.2664 18.9686 38.2466 18.8871C38.207 18.8056 38.1277 18.7241 38.0485 18.7037C37.5138 18.4797 36.9394 18.3167 36.3453 18.2352C35.5333 18.113 34.7015 18.0519 33.8895 18.0519C32.4834 18.0519 31.3149 18.276 30.384 18.7649C29.5324 19.1723 28.7996 19.8241 28.3045 20.6389C27.8688 21.3926 27.6312 22.2278 27.6312 23.1037C27.6114 23.8167 27.7698 24.5297 28.0867 25.1815C28.463 25.8741 28.9779 26.4648 29.5918 26.913C30.4633 27.5241 31.3941 28.013 32.4041 28.3796C33.3746 28.7667 34.0281 29.0722 34.345 29.337C34.6619 29.6019 34.8203 29.8667 34.8203 30.1519C34.8203 30.5185 34.6025 30.8648 34.2856 31.0074C33.9291 31.1907 33.3944 31.2926 32.6418 31.2926C31.8496 31.2926 31.0574 31.1907 30.3048 30.987C29.4334 30.7833 28.6214 30.4574 27.849 29.9889C27.7896 29.9481 27.7302 29.9278 27.6708 29.9685C27.6114 30.0093 27.5916 30.0907 27.5916 30.1519V33.6963C27.5717 33.8592 27.6708 34.0018 27.8094 34.0833C28.4432 34.3889 29.1363 34.6129 29.8295 34.7352C30.7207 34.9185 31.6119 35 32.523 35C33.9489 35 35.1372 34.7759 36.1076 34.3481C36.9989 33.9815 37.7713 33.35 38.3258 32.5352C38.8407 31.7407 39.118 30.7833 39.0982 29.8259C39.118 29.0926 38.9595 28.3796 38.6427 27.7278C38.2664 27.0352 37.7316 26.4648 37.0781 26.0371C36.1274 25.4259 35.0976 24.9167 34.0281 24.55C33.5528 24.3463 33.0775 24.1222 32.622 23.8778C32.3645 23.7352 32.1269 23.5519 31.9486 23.3278C31.8298 23.1648 31.7506 22.9815 31.7506 22.7982C31.7506 22.6148 31.81 22.4111 31.909 22.2482C32.0476 22.0445 32.2655 21.9019 32.523 21.8408C32.8993 21.7389 33.3152 21.6778 33.7113 21.6982C34.4638 21.6982 35.1966 21.8 35.9294 21.963Z" fill="#31A8FF"/>
</g>
<rect x="0.5" y="0.5" width="47" height="47" stroke="black" stroke-opacity="0.1"/>
<defs>
<clipPath id="clip0_205_88">
<rect width="48" height="48" fill="white"/>
</clipPath>
</defs>
</svg>
