<svg width="48" height="48" viewBox="0 0 48 48" fill="none" xmlns="http://www.w3.org/2000/svg">
<g clip-path="url(#clip0_205_145)">
<path d="M48 0H0V48H48V0Z" fill="#171717"/>
<path d="M24.067 24.0001C24.067 21.0546 26.4548 18.6667 29.4003 18.6667C32.3458 18.6667 34.7337 21.0546 34.7337 24.0001C34.7337 26.9456 32.3458 29.3334 29.4003 29.3334C26.4548 29.3334 24.067 26.9456 24.067 24.0001Z" fill="#1ABCFE"/>
<path d="M13.4 34.6666C13.4 31.7211 15.7878 29.3333 18.7333 29.3333H24.0667V34.6666C24.0667 37.6121 21.6789 39.9999 18.7333 39.9999C15.7878 39.9999 13.4 37.6121 13.4 34.6666Z" fill="#0ACF83"/>
<path d="M24.067 8V18.6666H29.4003C32.3459 18.6666 34.7337 16.2788 34.7337 13.3333C34.7337 10.3878 32.3459 8 29.4003 8H24.067Z" fill="#FF7262"/>
<path d="M13.4 13.3333C13.4 16.2789 15.7878 18.6666 18.7333 18.6666H24.0667V8H18.7333C15.7878 8 13.4 10.3878 13.4 13.3333Z" fill="#F24E1E"/>
<path d="M13.4 24.0001C13.4 26.9456 15.7878 29.3334 18.7333 29.3334H24.0667V18.6667H18.7333C15.7878 18.6667 13.4 21.0546 13.4 24.0001Z" fill="#A259FF"/>
</g>
<rect x="0.5" y="0.5" width="47" height="47" stroke="black" stroke-opacity="0.1"/>
<defs>
<clipPath id="clip0_205_145">
<rect width="48" height="48" fill="white"/>
</clipPath>
</defs>
</svg>
