<svg width="48" height="48" viewBox="0 0 48 48" fill="none" xmlns="http://www.w3.org/2000/svg">
<g clip-path="url(#clip0_205_275)">
<path d="M48 0H0V48H48V0Z" fill="white"/>
<path d="M27.0092 24C27.0092 25.6427 25.6619 26.9744 24 26.9744C22.3381 26.9744 20.9909 25.6427 20.9909 24C20.9909 22.3573 22.3381 21.0257 24 21.0257C25.6619 21.0257 27.0092 22.3573 27.0092 24Z" fill="#61DAFB"/>
<path fill-rule="evenodd" clip-rule="evenodd" d="M22.6048 11.4175C23.0659 11.7879 23.5321 12.1974 24 12.643C24.4678 12.1974 24.9341 11.7879 25.3952 11.4175C26.6561 10.4045 27.9154 9.65407 29.098 9.2759C30.2805 8.89777 31.4809 8.86617 32.5 9.44776C33.5191 10.0294 34.0916 11.0727 34.3516 12.274C34.6115 13.4754 34.5837 14.9286 34.3266 16.5144C34.2326 17.0944 34.1069 17.6982 33.9505 18.3215C34.5748 18.4992 35.1667 18.6935 35.7218 18.9031C37.2398 19.4759 38.5269 20.1787 39.4496 21.0019C40.3721 21.8251 41 22.8368 41 24C41 25.1632 40.3721 26.1749 39.4496 26.9981C38.5269 27.8213 37.2398 28.5241 35.7218 29.097C35.1667 29.3065 34.5748 29.5008 33.9505 29.6785C34.1069 30.3018 34.2326 30.9056 34.3266 31.4856C34.5837 33.0714 34.6115 34.5246 34.3516 35.726C34.0916 36.9273 33.5191 37.9706 32.5 38.5522C31.4809 39.1338 30.2805 39.1022 29.098 38.7241C27.9154 38.3459 26.6561 37.5955 25.3952 36.5825C24.9341 36.2121 24.4678 35.8026 24 35.357C23.5321 35.8026 23.0659 36.2121 22.6048 36.5825C21.3439 37.5955 20.0846 38.3459 18.902 38.7241C17.7195 39.1022 16.5191 39.1338 15.5 38.5522C14.4809 37.9706 13.9084 36.9273 13.6484 35.726C13.3885 34.5246 13.4163 33.0714 13.6734 31.4856C13.7674 30.9056 13.8931 30.3018 14.0495 29.6785C13.4252 29.5008 12.8333 29.3065 12.2782 29.097C10.7602 28.5241 9.47306 27.8213 8.55041 26.9981C7.62785 26.1749 7 25.1632 7 24C7 22.8368 7.62785 21.8251 8.55041 21.0019C9.47306 20.1787 10.7602 19.4759 12.2782 18.9031C12.8333 18.6936 13.4252 18.4992 14.0495 18.3215C13.8931 17.6982 13.7674 17.0944 13.6734 16.5144C13.4163 14.9286 13.3884 13.4754 13.6484 12.274C13.9084 11.0727 14.4809 10.0294 15.5 9.44777C16.5191 8.86617 17.7195 8.89777 18.902 9.2759C20.0846 9.65407 21.3439 10.4045 22.6048 11.4175ZM32.6827 12.6268C32.4822 11.7002 32.1019 11.1684 31.6467 10.9086C31.1915 10.6488 30.5354 10.5892 29.6233 10.8809C28.7114 11.1725 27.6378 11.7896 26.4716 12.7265C26.0508 13.0645 25.6228 13.4403 25.1908 13.8514C26.1236 14.8565 27.0514 15.9947 27.9472 17.2424C29.4882 17.3853 30.9493 17.6104 32.2964 17.9064C32.4405 17.3311 32.5557 16.7767 32.6415 16.2476C32.8793 14.7808 32.8832 13.5533 32.6827 12.6268ZM21.5284 12.7265C21.9492 13.0645 22.3772 13.4403 22.8092 13.8514C21.8764 14.8565 20.9486 15.9947 20.0528 17.2424C18.5118 17.3853 17.0507 17.6104 15.7036 17.9064C15.5595 17.3311 15.4443 16.7767 15.3585 16.2476C15.1207 14.7808 15.1168 13.5533 15.3173 12.6268C15.5178 11.7002 15.8981 11.1684 16.3533 10.9086C16.8085 10.6489 17.4646 10.5892 18.3767 10.8809C19.2886 11.1725 20.3622 11.7896 21.5284 12.7265ZM29.1905 19.0785C30.1146 19.1997 30.9972 19.3522 31.8294 19.532C31.5708 20.3342 31.2631 21.166 30.9072 22.0176C30.6441 21.523 30.3677 21.0271 30.0781 20.5314C29.7886 20.0356 29.4923 19.551 29.1905 19.0785ZM33.4871 19.945C33.0729 21.2461 32.5396 22.6094 31.8943 24C32.5396 25.3906 33.0729 26.7539 33.4871 28.055C34.0633 27.8907 34.6066 27.7122 35.1131 27.521C36.5171 26.9912 37.5945 26.3808 38.306 25.7459C39.0176 25.111 39.2934 24.5196 39.2934 24C39.2934 23.4804 39.0176 22.889 38.306 22.2541C37.5945 21.6192 36.5171 21.0089 35.1131 20.479C34.6066 20.2878 34.0633 20.1093 33.4871 19.945ZM28.6002 21.3748C29.1148 22.2559 29.5844 23.134 30.008 24C29.5844 24.866 29.1148 25.7442 28.6002 26.6252C28.0855 27.5062 27.5509 28.3474 27.004 29.1429C26.0335 29.2133 25.0292 29.2504 24 29.2504C22.9708 29.2504 21.9665 29.2133 20.996 29.1429C20.4491 28.3474 19.9145 27.5062 19.3998 26.6252C18.8852 25.7442 18.4156 24.866 17.992 24C18.4156 23.134 18.8852 22.2558 19.3998 21.3748C19.9145 20.4938 20.4491 19.6526 20.996 18.8571C21.9665 18.7867 22.9708 18.7496 24 18.7496C25.0292 18.7496 26.0335 18.7867 27.004 18.8571C27.5509 19.6526 28.0855 20.4938 28.6002 21.3748ZM30.0781 27.4686C29.7886 27.9644 29.4923 28.449 29.1905 28.9215C30.1146 28.8003 30.9972 28.6479 31.8294 28.468C31.5708 27.6658 31.2631 26.834 30.9072 25.9824C30.6441 26.477 30.3677 26.9729 30.0781 27.4686ZM24 30.9373C24.5791 30.9373 25.1518 30.926 25.7167 30.9039C25.1485 31.6343 24.5736 32.3136 24 32.9361C23.4264 32.3136 22.8515 31.6343 22.2833 30.9039C22.8482 30.926 23.4209 30.9373 24 30.9373ZM27.9472 30.7577C27.0514 32.0053 26.1236 33.1435 25.1908 34.1486C25.6227 34.5597 26.0508 34.9355 26.4716 35.2735C27.6378 36.2104 28.7113 36.8275 29.6233 37.1191C30.5354 37.4108 31.1915 37.3512 31.6467 37.0914C32.1019 36.8316 32.4822 36.2998 32.6827 35.3732C32.8832 34.4467 32.8792 33.2192 32.6415 31.7524C32.5557 31.2233 32.4405 30.6689 32.2964 30.0936C30.9493 30.3896 29.4882 30.6147 27.9472 30.7577ZM20.0528 30.7577C20.9486 32.0053 21.8764 33.1435 22.8092 34.1486C22.3772 34.5597 21.9492 34.9355 21.5284 35.2735C20.3622 36.2104 19.2886 36.8275 18.3767 37.1191C17.4646 37.4108 16.8085 37.3512 16.3533 37.0914C15.8981 36.8316 15.5178 36.2998 15.3173 35.3732C15.1168 34.4467 15.1207 33.2192 15.3585 31.7524C15.4443 31.2233 15.5595 30.6689 15.7036 30.0936C17.0507 30.3896 18.5118 30.6147 20.0528 30.7577ZM18.8095 28.9215C17.8854 28.8003 17.0028 28.6479 16.1706 28.468C16.4292 27.6658 16.7369 26.834 17.0928 25.9824C17.3558 26.477 17.6323 26.9729 17.9219 27.4686C18.2114 27.9644 18.5077 28.449 18.8095 28.9215ZM17.9219 20.5314C17.6323 21.0271 17.3558 21.523 17.0928 22.0176C16.7369 21.166 16.4292 20.3342 16.1706 19.532C17.0028 19.3522 17.8854 19.1997 18.8095 19.0785C18.5077 19.551 18.2114 20.0356 17.9219 20.5314ZM14.5128 28.055C14.9271 26.7539 15.4604 25.3906 16.1057 24C15.4604 22.6094 14.9271 21.2461 14.5128 19.945C13.9367 20.1093 13.3934 20.2878 12.8869 20.479C11.4829 21.0089 10.4055 21.6192 9.69397 22.2541C8.98239 22.889 8.7066 23.4804 8.7066 24C8.7066 24.5196 8.98239 25.111 9.69397 25.7459C10.4055 26.3808 11.4829 26.9912 12.8869 27.521C13.3934 27.7122 13.9367 27.8907 14.5128 28.055ZM24 17.0627C23.4209 17.0627 22.8481 17.074 22.2833 17.0961C22.8515 16.3657 23.4264 15.6864 24 15.064C24.5736 15.6864 25.1485 16.3657 25.7167 17.0961C25.1518 17.074 24.5791 17.0627 24 17.0627Z" fill="#61DAFB"/>
</g>
<rect x="0.5" y="0.5" width="47" height="47" stroke="black" stroke-opacity="0.1"/>
<defs>
<clipPath id="clip0_205_275">
<rect width="48" height="48" fill="white"/>
</clipPath>
</defs>
</svg>
